<svg id="Layer_1" data-name="Layer 1" xmlns="http://www.w3.org/2000/svg" width="1in" height="1in" viewBox="0 0 72 72"><title>Center</title><polygon points="41.1 19.9 20 19.9 20 25.6 51.5 25.6 51.5 19.9 41.1 19.9"/><polygon points="43.9 6.7 12.7 6.7 12.7 12.4 59.3 12.4 59.3 6.7 43.9 6.7"/><polygon points="43.9 33.2 12.7 33.2 12.7 38.8 59.3 38.8 59.3 33.2 43.9 33.2"/><polygon points="41.1 46.4 20 46.4 20 52.1 51.5 52.1 51.5 46.4 41.1 46.4"/><polygon points="43.9 59.6 12.7 59.6 12.7 65.3 59.3 65.3 59.3 59.6 43.9 59.6"/></svg>