<svg id="Layer_1" data-name="Layer 1" xmlns="http://www.w3.org/2000/svg" width="1in" height="1in" viewBox="0 0 72 72"><title>Justify</title><polygon points="27.3 19.9 58.5 19.9 58.5 25.6 11.9 25.6 11.9 19.9 27.3 19.9"/><polygon points="27.3 6.7 58.5 6.7 58.5 12.4 11.9 12.4 11.9 6.7 27.3 6.7"/><polygon points="27.3 33.2 58.5 33.2 58.5 38.8 11.9 38.8 11.9 33.2 27.3 33.2"/><polygon points="27.3 46.4 58.5 46.4 58.5 52.1 11.9 52.1 11.9 46.4 27.3 46.4"/><polygon points="27.3 59.6 58.5 59.6 58.5 65.3 11.9 65.3 11.9 59.6 27.3 59.6"/></svg>