<svg id="Layer_1" data-name="Layer 1" xmlns="http://www.w3.org/2000/svg" width="1in" height="1in" viewBox="0 0 72 72"><title>Left</title><polygon points="23.1 19.9 44.3 19.9 44.3 25.6 12.7 25.6 12.7 19.9 23.1 19.9"/><polygon points="28.1 6.7 59.3 6.7 59.3 12.4 12.7 12.4 12.7 6.7 28.1 6.7"/><polygon points="28.1 33.2 59.3 33.2 59.3 38.8 12.7 38.8 12.7 33.2 28.1 33.2"/><polygon points="23.1 46.4 44.3 46.4 44.3 52.1 12.7 52.1 12.7 46.4 23.1 46.4"/><polygon points="28.1 59.6 59.3 59.6 59.3 65.3 12.7 65.3 12.7 59.6 28.1 59.6"/></svg>