<svg id="Layer_1" data-name="Layer 1" xmlns="http://www.w3.org/2000/svg" width="1in" height="1in" viewBox="0 0 72 72"><title>Right</title><polygon points="48.9 19.9 27.7 19.9 27.7 25.6 59.3 25.6 59.3 19.9 48.9 19.9"/><polygon points="43.9 6.7 12.7 6.7 12.7 12.4 59.3 12.4 59.3 6.7 43.9 6.7"/><polygon points="43.9 33.2 12.7 33.2 12.7 38.8 59.3 38.8 59.3 33.2 43.9 33.2"/><polygon points="48.9 46.4 27.7 46.4 27.7 52.1 59.3 52.1 59.3 46.4 48.9 46.4"/><polygon points="43.9 59.6 12.7 59.6 12.7 65.3 59.3 65.3 59.3 59.6 43.9 59.6"/></svg>