<svg xmlns="http://www.w3.org/2000/svg" width="296" height="296" viewBox="0 0 296 296"><title>fab-add</title><g id="Layer_2" data-name="Layer 2"><g id="Layer_1-2" data-name="Layer 1"><circle cx="148" cy="148" r="148" fill="#ec407a"/><path d="M184.3,140.4c0-26.3-27.8-46.2-55.7-31.9-5.9,3-12.7,10.7-15,17-11.5,31.6,17.5,52.5,17.5,62.4V198a2.9,2.9,0,0,0,3,3h27.1a3,3,0,0,0,3-3V187.9C164.2,178.1,184.3,164.2,184.3,140.4Z" fill="#fff"/><path d="M161.3,206.7H133.7a2.8,2.8,0,0,0-2.9,2.7h-.1V217a3,3,0,0,0,3,2.9h2.5v3.4c0,1.6.8,2.9,1.9,2.9H157c1.1,0,2-1.3,2-2.9v-3.4h2.4a2.9,2.9,0,0,0,2.9-2.9v-7.5a2.9,2.9,0,0,0-2.8-2.8Z" fill="#fff"/><path d="M155.8,201h-5.1V180.3a10.9,10.9,0,0,1-4.6,1c-6.4,0-11.1-5.4-11.1-12.6s5.5-12.2,10.7-12.2a9.3,9.3,0,0,1,7,3.2,11.6,11.6,0,0,1,3,7.4c1.9-4.2,3.5-11,3.5-21.4v-1.2a17.7,17.7,0,0,1-14.8,8.2,13.5,13.5,0,0,1-9.7-3.8c-2.7-2.8-4-6.8-4-11.6,0-11.3,8.1-18,16-18a15.6,15.6,0,0,1,12.5,6.6c3.5,4.7,5.3,11.4,5.3,19.8,0,11.4-1.9,20.5-5.7,26.9a41,41,0,0,1-2.9,4Zm-10.1-39.4c-2.9,0-5.6,2.5-5.6,7.1s2.5,7.5,6,7.5a7.4,7.4,0,0,0,4.6-1.8v-5.8a9.7,9.7,0,0,0-1.7-5.5A4.8,4.8,0,0,0,145.7,161.6Zm1-37.2c-5.4,0-11,4.8-11,12.9s6.6,10.3,8.7,10.3c5.3,0,12.7-4.4,12.9-14.2a18.8,18.8,0,0,0-2.2-4.5A10.7,10.7,0,0,0,146.7,124.4Z" fill="#ec407a"/><path d="M147.6,93.2a2.8,2.8,0,0,1-3-2.8c-.1,0-.1-.1,0-.2V71.8a2.9,2.9,0,0,1,3.4-2.4,3.1,3.1,0,0,1,2.5,2.4V90.2a2.9,2.9,0,0,1-2.8,3Z" fill="#fff"/><path d="M218.8,143.2H200.5a2.8,2.8,0,0,1-2.9-2.9h0a2.9,2.9,0,0,1,2.9-3h18.3a3,3,0,0,1,3,3,2.8,2.8,0,0,1-2.8,2.9Z" fill="#fff"/><path d="M95.5,143.2H77.1a2.8,2.8,0,0,1-2.9-2.9h0a2.9,2.9,0,0,1,2.9-3H95.5a3.1,3.1,0,0,1,3,3,2.9,2.9,0,0,1-2.9,2.9Z" fill="#fff"/><path d="M109,106.3a2.8,2.8,0,0,1-2-.8L93.9,92.4A2.9,2.9,0,0,1,98,88.2h.1l13,13a3,3,0,0,1,.1,4.1h-.1A3.4,3.4,0,0,1,109,106.3Z" fill="#fff"/><path d="M92.3,190.9a2.5,2.5,0,0,1-2-.9,2.7,2.7,0,0,1-.2-3.9l.2-.2,13-13.1a2.9,2.9,0,0,1,4.2,4.1h-.1l-13,13A3,3,0,0,1,92.3,190.9Z" fill="#fff"/><path d="M203,190.9a2.7,2.7,0,0,1-2.1-.9l-13-13a2.9,2.9,0,0,1,.6-4.2,3,3,0,0,1,3.6,0L205,185.9a3,3,0,0,1,0,4.1A2.7,2.7,0,0,1,203,190.9Z" fill="#fff"/><path d="M185.8,106.3a3.2,3.2,0,0,1-2-.8,3,3,0,0,1-.1-4.1.1.1,0,0,0,.1-.1l13-13a3,3,0,0,1,4.1.1,2.8,2.8,0,0,1,0,4l-13,13.1A3,3,0,0,1,185.8,106.3Z" fill="#fff"/></g></g></svg>