<svg xmlns="http://www.w3.org/2000/svg" width="296" height="296" viewBox="0 0 296 296"><title>Asset 3</title><g id="Layer_2" data-name="Layer 2"><g id="Layer_1-2" data-name="Layer 1"><circle cx="148" cy="148" r="148" fill="#ffc107"/><path d="M147.7,87.1a72.6,72.6,0,0,0,0,145.2,12.1,12.1,0,0,0,12.1-12.1,12.4,12.4,0,0,0-3.1-8.1,11.9,11.9,0,0,1-3.1-8A12.1,12.1,0,0,1,165.7,192H180a40.3,40.3,0,0,0,40.3-40.3C220.3,116,187.8,87.1,147.7,87.1Zm-44.3,72.6a12.1,12.1,0,1,1,12.1-12.1A12.1,12.1,0,0,1,103.4,159.7Zm24.2-32.2a12.1,12.1,0,1,1,12.1-12.1A12.1,12.1,0,0,1,127.6,127.5Zm40.3,0A12.1,12.1,0,1,1,180,115.4,12.1,12.1,0,0,1,167.9,127.5Zm24.2,32.2a12.1,12.1,0,1,1,12.1-12.1A12.1,12.1,0,0,1,192.1,159.7Z" fill="#fff"/></g></g></svg>