<svg xmlns="http://www.w3.org/2000/svg" width="296" height="296" viewBox="0 0 296 296"><circle cx="148" cy="148" r="148" fill="#ffc107"/><path fill="#fff" d="M147.7 87.1a72.6 72.6 0 0 0 0 145.2 12.1 12.1 0 0 0 12.1-12.1 12.4 12.4 0 0 0-3.1-8.1 11.9 11.9 0 0 1-3.1-8 12.1 12.1 0 0 1 12.1-12.1H180a40.3 40.3 0 0 0 40.3-40.3c0-35.7-32.5-64.6-72.6-64.6zm-44.3 72.6a12.1 12.1 0 1 1 12.1-12.1 12.1 12.1 0 0 1-12.1 12.1zm24.2-32.2a12.1 12.1 0 1 1 12.1-12.1 12.1 12.1 0 0 1-12.1 12.1zm40.3 0a12.1 12.1 0 1 1 12.1-12.1 12.1 12.1 0 0 1-12.1 12.1zm24.2 32.2a12.1 12.1 0 1 1 12.1-12.1 12.1 12.1 0 0 1-12.1 12.1z"/></svg>