<svg xmlns="http://www.w3.org/2000/svg" width="296" height="296" viewBox="0 0 296 296"><title>Asset 5</title><g id="Layer_2" data-name="Layer 2"><g id="Layer_1-2" data-name="Layer 1"><circle cx="148" cy="148" r="148" fill="#ffc107"/><path d="M125.4,75.2,110.7,91.3H85.1A16.2,16.2,0,0,0,69,107.5v96.7a16.2,16.2,0,0,0,16.1,16.2H214.2a16.2,16.2,0,0,0,16.1-16.2V107.5a16.2,16.2,0,0,0-16.1-16.2H188.6L173.8,75.2Zm24.2,121A40.4,40.4,0,1,1,190,155.9,40.4,40.4,0,0,1,149.6,196.2Z" fill="#fff"/><path d="M149.6,188.1l10.1-22.2,22.2-10-22.2-10.1-10.1-22.2-10,22.2-22.2,10.1,22.2,10Z" fill="#fff"/></g></g></svg>