<svg xmlns="http://www.w3.org/2000/svg"><symbol id="calendar" viewBox="0 0 24 24"><path d="M9 11H7v2h2v-2zm4 0h-2v2h2v-2zm4 0h-2v2h2v-2zm2-7h-1V2h-2v2H8V2H6v2H5c-1.11 0-1.99.9-1.99 2L3 20a2 2 0 0 0 2 2h14c1.1 0 2-.9 2-2V6c0-1.1-.9-2-2-2zm0 16H5V9h14v11z"/><path fill="none" d="M0 0h24v24H0z"/></symbol><symbol id="camera" viewBox="0 0 24 24"><path d="M9 3L7.17 5H4c-1.1 0-2 .9-2 2v12c0 1.1.9 2 2 2h16c1.1 0 2-.9 2-2V7c0-1.1-.9-2-2-2h-3.17L15 3H9zm3 15c-2.76 0-5-2.24-5-5s2.24-5 5-5 5 2.24 5 5-2.24 5-5 5z"/><path fill="none" d="M0 0h24v24H0V0z"/><path d="M12 17l1.25-2.75L16 13l-2.75-1.25L12 9l-1.25 2.75L8 13l2.75 1.25z"/></symbol><symbol id="audio" viewBox="0 0 24 24"><path d="M12 14c1.66 0 2.99-1.34 2.99-3L15 5c0-1.66-1.34-3-3-3S9 3.34 9 5v6c0 1.66 1.34 3 3 3zm5.3-3c0 3-2.54 5.1-5.3 5.1S6.7 14 6.7 11H5c0 3.41 2.72 6.23 6 6.72V21h2v-3.28c3.28-.48 6-3.3 6-6.72h-1.7z"/><path fill="none" d="M0 0h24v24H0z"/></symbol><symbol id="fab-add" viewBox="0 0 296 296"><circle cx="148" cy="148" r="148" fill="#ec407a"/><path fill="#fff" d="M222 135.8v23.4h-62.3v62.3h-23.4v-62.3H74v-23.4h62.3V73.5h23.4v62.3H222z"/></symbol><symbol id="fab-audio" viewBox="0 0 296 296"><circle cx="148" cy="148" r="148" fill="#ffc107"/><path fill="#fff" d="M147.7 167.9a24.2 24.2 0 0 0 24.2-24.2V95.3a24.2 24.2 0 0 0-48.4 0v48.4a24.2 24.2 0 0 0 24.2 24.2zm42.8-24.2c0 24.2-20.5 41.2-42.8 41.2s-42.7-17-42.7-41.2H91.3c0 27.5 21.9 50.3 48.4 54.2v26.5h16.1v-26.5c26.5-3.8 48.4-26.6 48.4-54.2z"/></symbol><symbol id="fab-notes" viewBox="0 0 296 296"><circle cx="148" cy="148" r="148" fill="#ffc107"/><path fill="#fff" d="M230.7 131.7l-48.4-48.4H85.5a16.2 16.2 0 0 0-16.2 16.1v96.9a16.2 16.2 0 0 0 16.2 16h129a16.1 16.1 0 0 0 16.2-16zm-56.5-36.3l44.4 44.3h-44.4z"/></symbol><symbol id="fab-palettes" viewBox="0 0 296 296"><circle cx="148" cy="148" r="148" fill="#ffc107"/><path fill="#fff" d="M147.7 87.1a72.6 72.6 0 0 0 0 145.2 12.1 12.1 0 0 0 12.1-12.1 12.4 12.4 0 0 0-3.1-8.1 11.9 11.9 0 0 1-3.1-8 12.1 12.1 0 0 1 12.1-12.1H180a40.3 40.3 0 0 0 40.3-40.3c0-35.7-32.5-64.6-72.6-64.6zm-44.3 72.6a12.1 12.1 0 1 1 12.1-12.1 12.1 12.1 0 0 1-12.1 12.1zm24.2-32.2a12.1 12.1 0 1 1 12.1-12.1 12.1 12.1 0 0 1-12.1 12.1zm40.3 0a12.1 12.1 0 1 1 12.1-12.1 12.1 12.1 0 0 1-12.1 12.1zm24.2 32.2a12.1 12.1 0 1 1 12.1-12.1 12.1 12.1 0 0 1-12.1 12.1z"/></symbol><symbol id="fab-photo" viewBox="0 0 296 296"><circle cx="148" cy="148" r="148" fill="#ffc107"/><path fill="#fff" d="M125.4 75.2l-14.7 16.1H85.1A16.2 16.2 0 0 0 69 107.5v96.7a16.2 16.2 0 0 0 16.1 16.2h129.1a16.2 16.2 0 0 0 16.1-16.2v-96.7a16.2 16.2 0 0 0-16.1-16.2h-25.6l-14.8-16.1zm24.2 121a40.4 40.4 0 1 1 40.4-40.3 40.4 40.4 0 0 1-40.4 40.3z"/><path fill="#fff" d="M149.6 188.1l10.1-22.2 22.2-10-22.2-10.1-10.1-22.2-10 22.2-22.2 10.1 22.2 10z"/></symbol><symbol id="fab-video" viewBox="0 0 296 296"><circle cx="148" cy="148" r="148" fill="#ffc107"/><path fill="#fff" d="M196 145v-28.2a8.1 8.1 0 0 0-8.1-8H91.1a8.1 8.1 0 0 0-8.1 8v80.7a8.1 8.1 0 0 0 8.1 8h96.8a8.1 8.1 0 0 0 8.1-8v-28.3l32.2 32.3v-88.7z"/></symbol><symbol id="home" viewBox="0 0 24 24"><path d="M10 20v-6h4v6h5v-8h3L12 3 2 12h3v8z"/><path fill="none" d="M0 0h24v24H0z"/></symbol><symbol id="palette" viewBox="0 0 24 24"><style>.st0{fill:#ec407a}.st1{fill:none}</style><path d="M12 3c-5 0-9 4-9 9s4 9 9 9c.8 0 1.5-.7 1.5-1.5 0-.4-.1-.7-.4-1-.2-.3-.4-.6-.4-1 0-.8.7-1.5 1.5-1.5H16c2.8 0 5-2.2 5-5 0-4.4-4-8-9-8zm-5.5 9c-.8 0-1.5-.7-1.5-1.5S5.7 9 6.5 9 8 9.7 8 10.5 7.3 12 6.5 12zm3-4C8.7 8 8 7.3 8 6.5S8.7 5 9.5 5s1.5.7 1.5 1.5S10.3 8 9.5 8zm5 0c-.8 0-1.5-.7-1.5-1.5S13.7 5 14.5 5s1.5.7 1.5 1.5S15.3 8 14.5 8zm3 4c-.8 0-1.5-.7-1.5-1.5S16.7 9 17.5 9s1.5.7 1.5 1.5-.7 1.5-1.5 1.5z" class="st0"/><path d="M0 0h24v24H0V0z" class="st1"/></symbol><symbol id="note" viewBox="0 0 24 24"><path d="M22 10l-6-6H4c-1.1 0-2 .9-2 2v12.01c0 1.1.9 1.99 2 1.99l16-.01c1.1 0 2-.89 2-1.99v-8zm-7-4.5l5.5 5.5H15V5.5z"/><path fill="none" d="M0 0h24v24H0V0z"/></symbol><symbol id="palette2" viewBox="0 0 24 24"><path d="M12 3a9 9 0 0 0 0 18c.83 0 1.5-.67 1.5-1.5 0-.39-.15-.74-.39-1.01-.23-.26-.38-.61-.38-.99 0-.83.67-1.5 1.5-1.5H16c2.76 0 5-2.24 5-5 0-4.42-4.03-8-9-8zm-5.5 9c-.83 0-1.5-.67-1.5-1.5S5.67 9 6.5 9 8 9.67 8 10.5 7.33 12 6.5 12zm3-4C8.67 8 8 7.33 8 6.5S8.67 5 9.5 5s1.5.67 1.5 1.5S10.33 8 9.5 8zm5 0c-.83 0-1.5-.67-1.5-1.5S13.67 5 14.5 5s1.5.67 1.5 1.5S15.33 8 14.5 8zm3 4c-.83 0-1.5-.67-1.5-1.5S16.67 9 17.5 9s1.5.67 1.5 1.5-.67 1.5-1.5 1.5z"/><path fill="none" d="M0 0h24v24H0z"/></symbol><symbol id="pause" viewBox="0 0 24 24"><path d="M6 19h4V5H6v14zm8-14v14h4V5h-4z"/><path fill="none" d="M0 0h24v24H0z"/></symbol><symbol id="folder" viewBox="0 0 24 24"><style>.st0{fill:#ec407a}.st1{fill:none}</style><path d="M10 4H4c-1.1 0-2 .9-2 2v12c0 1.1.9 2 2 2h16c1.1 0 2-.9 2-2V8c0-1.1-.9-2-2-2h-8l-2-2z" class="st0"/><path d="M0 0h24v24H0V0z" class="st1"/></symbol><symbol id="play" viewBox="0 0 24 24"><path d="M8 5v14l11-7z"/><path fill="none" d="M0 0h24v24H0z"/></symbol><symbol id="reminder" viewBox="0 0 24 24"><style>.st0{fill:none}.st1{fill:#ec407a}</style><path d="M0 0h24v24H0V0z" class="st0"/><path d="M7.9 3.4L6.6 1.9 2 5.7l1.3 1.5 4.6-3.8zM22 5.7l-4.6-3.9-1.3 1.5 4.6 3.9L22 5.7zM12 4c-5 0-9 4-9 9s4 9 9 9 9-4 9-9-4-9-9-9zm0 16c-3.9 0-7-3.1-7-7s3.1-7 7-7 7 3.1 7 7-3.1 7-7 7zm1-11h-2v3H8v2h3v3h2v-3h3v-2h-3V9z" class="st1"/></symbol><symbol id="replay" viewBox="0 0 24 24"><path fill="none" d="M0 0h24v24H0z"/><path d="M12 5V1L7 6l5 5V7c3.31 0 6 2.69 6 6s-2.69 6-6 6-6-2.69-6-6H4c0 4.42 3.58 8 8 8s8-3.58 8-8-3.58-8-8-8z"/></symbol><symbol id="video" viewBox="0 0 24 24"><path fill="none" d="M0 0h24v24H0z"/><path d="M17 10.5V7c0-.55-.45-1-1-1H4c-.55 0-1 .45-1 1v10c0 .55.45 1 1 1h12c.55 0 1-.45 1-1v-3.5l4 4v-11l-4 4z"/></symbol><symbol id="settings" viewBox="0 0 24 24"><path fill="none" d="M0 0h24v24H0z"/><path d="M19.43 12.98c.04-.32.07-.64.07-.98s-.03-.66-.07-.98l2.11-1.65c.19-.15.24-.42.12-.64l-2-3.46c-.12-.22-.39-.3-.61-.22l-2.49 1c-.52-.4-1.08-.73-1.69-.98l-.38-2.65A.488.488 0 0 0 14 2h-4c-.25 0-.46.18-.49.42l-.38 2.65c-.61.25-1.17.59-1.69.98l-2.49-1c-.23-.09-.49 0-.61.22l-2 3.46c-.13.22-.07.49.12.64l2.11 1.65c-.04.32-.07.65-.07.98s.03.66.07.98l-2.11 1.65c-.19.15-.24.42-.12.64l2 3.46c.12.22.39.3.61.22l2.49-1c.52.4 1.08.73 1.69.98l.38 2.65c.03.24.24.42.49.42h4c.25 0 .46-.18.49-.42l.38-2.65c.61-.25 1.17-.59 1.69-.98l2.49 1c.23.09.49 0 .61-.22l2-3.46c.12-.22.07-.49-.12-.64l-2.11-1.65zM12 15.5c-1.93 0-3.5-1.57-3.5-3.5s1.57-3.5 3.5-3.5 3.5 1.57 3.5 3.5-1.57 3.5-3.5 3.5z"/></symbol><symbol id="share" viewBox="0 0 24 24"><style>.st0{fill:none}.st1{fill:#ec407a}</style><path d="M0 0h24v24H0V0z" class="st0"/><path d="M18 16.1c-.8 0-1.4.3-2 .8l-7.1-4.2c.1-.2.1-.5.1-.7s0-.5-.1-.7L16 7.2c.5.5 1.2.8 2 .8 1.7 0 3-1.3 3-3s-1.3-3-3-3-3 1.3-3 3c0 .2 0 .5.1.7L8 9.8C7.5 9.3 6.8 9 6 9c-1.7 0-3 1.3-3 3s1.3 3 3 3c.8 0 1.5-.3 2-.8l7.1 4.2c-.1.2-.1.4-.1.6 0 1.6 1.3 2.9 2.9 2.9s2.9-1.3 2.9-2.9-1.2-2.9-2.8-2.9z" class="st1"/></symbol><symbol id="stop" viewBox="0 0 24 24"><path fill="none" d="M0 0h24v24H0z"/><path d="M6 6h12v12H6z"/></symbol></svg>