<svg xmlns="http://www.w3.org/2000/svg" width="458.9" height="157.3" viewBox="0 0 458.9 157.3"><title>Asset 5</title><g id="Layer_2" data-name="Layer 2"><g id="Layer_1-2" data-name="Layer 1"><path d="M218.4,103.1c.1,1.5.1,3.2.1,5,0,12-10.2,21.6-25.8,21.6-14,0-19.5-6.3-19.5-12.6v-5.2h.6c3,2.7,8.7,4.3,16.7,4.3s11-3.9,11-9.2c0-.8-.2-1.9-.2-2.8v-1.7c-1.1,3.1-5,6.1-9.9,6.1-12.5,0-22.5-6.2-22.5-21.5,0-13.5,10.7-24.4,27.4-24.4,15,0,21.9,8.7,21.9,22.1v13C218.2,99,218.3,100.8,218.4,103.1ZM185.8,85.5c0,7.3,3.4,10,8.5,10s7.4-3.7,7.4-9.2c0-7.3-2.7-9.9-7.8-9.9S185.8,79.7,185.8,85.5Z" fill="#fbb040"/><path d="M246.9,114.7c-9.5,0-21.1-4.4-21.1-15.6s7.9-16.5,25.8-16.5H254V80.5c0-4-3.1-5-9.8-5-9.2,0-12.6,2.2-16.1,5.4h-.5v-6c0-6.1,6.4-12.2,20.4-12.2s22.5,6.9,22.5,21.4v7.6C270.5,109.6,264.8,114.7,246.9,114.7Zm7.5-21.5H251c-6.4,0-9,1.6-9,4.9s1.9,4.7,6.7,4.7c3,0,5.7-1.5,5.7-6Z" fill="#fbb040"/><path d="M284.8,55.5a15,15,0,0,1,8.9-3.3h1.8v12h14.4v6c0,4.2-4.5,7.4-8.3,7.4h-6.1V95.4c0,3.3,2,5.3,5.4,5.3s5.9-.4,7.7-1.1h.4v6.6c0,4.1-3.8,7.9-12.6,7.9s-17.5-4-17.5-17.5V66C278.9,61.6,281.5,58,284.8,55.5Z" fill="#fbb040"/><path d="M359.4,113.4c-9,0-10.5-4.2-10.5-10.3V86.6c0-7-2.5-10.1-7.3-10.1-6.6,0-8.3,3.5-8.3,10.5v26.4h-5.7c-8.1,0-11.3-3.4-11.3-10.3v-56h5.5c7.1,0,11.1,3.4,11.1,9.8V69.6c2.5-3.9,6.6-6.9,14.4-6.9,9.9,0,18.6,7.7,18.6,21.1v29.6Z" fill="#fbb040"/><path d="M396.5,94.9h-7.4c1,4.9,5,7.2,12.1,7.2s12.8-1.2,15.6-3.1h.6v3.9c0,6.3-5.1,11.9-19.2,11.9-17,0-25.9-11.4-25.9-25s10.1-27.2,25.3-27.2c12.9,0,22.9,7.3,22.9,19.8C420.5,92.3,413.1,94.9,396.5,94.9Zm1.1-19.6c-6,0-8.5,3.9-8.9,8.6h6.6c8,0,9.5-1.2,9.5-3.4S402.5,75.3,397.6,75.3Z" fill="#fbb040"/><path d="M458.4,76.9a15.8,15.8,0,0,0-6-1c-4.1,0-7.3,2-7.3,8v29.5h-4.7c-7.3,0-11.8-3.4-11.8-11.7V80.4c0-10,6.7-17.9,17.9-17.9,8.5,0,12.4,3.5,12.4,8.1v6.3Z" fill="#fbb040"/><path d="M110.2,71.5c0-26.3-27.8-46.2-55.7-31.9-5.9,3-12.7,10.7-15,17C27.9,88.2,56.9,109.1,56.9,119v10.1a3,3,0,0,0,3,3H87.1a3,3,0,0,0,2.9-3V119C90,109.2,110.2,95.3,110.2,71.5Z" fill="#ea7cb1"/><path d="M87.2,137.8H59.5a2.8,2.8,0,0,0-2.9,2.8v7.5a2.9,2.9,0,0,0,2.9,2.9H62v3.4c0,1.6.8,2.9,1.9,2.9H82.8c1.1,0,2-1.3,2-2.9V151h2.4a2.9,2.9,0,0,0,2.9-2.9v-7.5A2.8,2.8,0,0,0,87.2,137.8Z" fill="#c36"/><path d="M81.7,133.8H76.5V111.4a10.6,10.6,0,0,1-4.6,1c-6.4,0-11.1-5.4-11.1-12.6s5.5-12.2,10.7-12.2a9.3,9.3,0,0,1,7.1,3.2,12.1,12.1,0,0,1,3,7.4c1.8-4.2,3.5-11,3.5-21.4V75.6a17.9,17.9,0,0,1-14.8,8.2A13.4,13.4,0,0,1,60.6,80c-2.7-2.8-4.1-6.8-4.1-11.6,0-11.3,8.2-18,16.1-18A15.3,15.3,0,0,1,85,57c3.5,4.7,5.3,11.4,5.3,19.8,0,11.4-1.9,20.5-5.7,26.9a31.7,31.7,0,0,1-2.9,4ZM71.5,92.7c-2.8,0-5.6,2.5-5.6,7.1s2.5,7.5,6,7.5a7.5,7.5,0,0,0,4.6-1.8V99.7a8.4,8.4,0,0,0-1.7-5.5A4.5,4.5,0,0,0,71.5,92.7Zm1.1-37.2c-5.4,0-11,4.8-11,12.9s6.6,10.3,8.7,10.3c5.3,0,12.7-4.4,12.9-14.2A19,19,0,0,0,80.9,60,10.4,10.4,0,0,0,72.6,55.5Z" fill="#fff"/><path d="M73.4,24.3a2.9,2.9,0,0,1-3-3V2.9a3,3,0,0,1,5.9,0V21.3A2.9,2.9,0,0,1,73.4,24.3Z" fill="#fbb040"/><path d="M144.7,74.3H126.3a2.9,2.9,0,0,1-2.9-2.9,3,3,0,0,1,2.9-3h18.4a3,3,0,0,1,3,3A2.9,2.9,0,0,1,144.7,74.3Z" fill="#fbb040"/><path d="M21.3,74.3H2.9A2.9,2.9,0,0,1,0,71.4a3,3,0,0,1,2.9-3H21.3a3,3,0,0,1,3,3A2.9,2.9,0,0,1,21.3,74.3Z" fill="#fbb040"/><path d="M34.8,37.4a3,3,0,0,1-2-.8L19.7,23.5a3,3,0,0,1,0-4.1,2.9,2.9,0,0,1,4.2,0l13,13a2.9,2.9,0,0,1,0,4.2A3.2,3.2,0,0,1,34.8,37.4Z" fill="#fbb040"/><path d="M18.1,122a2.7,2.7,0,0,1-2-.9,2.8,2.8,0,0,1,0-4.1l13-13.1a3,3,0,0,1,4.1,0,2.9,2.9,0,0,1,0,4.2l-13,13A2.7,2.7,0,0,1,18.1,122Z" fill="#fbb040"/><path d="M128.8,122a2.9,2.9,0,0,1-2.1-.9l-13-13a3,3,0,0,1,4.2-4.2l13,13.1a3,3,0,0,1,0,4.1A2.9,2.9,0,0,1,128.8,122Z" fill="#fbb040"/><path d="M111.7,37.4a3,3,0,0,1-2-.8,2.9,2.9,0,0,1,0-4.2l13-13a2.9,2.9,0,0,1,4.1,4.1l-13,13.1A3,3,0,0,1,111.7,37.4Z" fill="#fbb040"/></g></g></svg>